<svg xmlns="http://www.w3.org/2000/svg" viewBox="0 0 900 520"><defs><linearGradient id="bg" x1="0" y1="0" x2="0" y2="1"><stop offset="0" stop-color="#e6f8ff"/><stop offset="1" stop-color="#fafff1"/></linearGradient><linearGradient id="river" x1="0" y1="0" x2="1" y2="0"><stop offset="0" stop-color="#58d3f0"/><stop offset="1" stop-color="#3868c8"/></linearGradient></defs><rect width="900" height="520" fill="url(#bg)"/><path d="M0 382 C150 338 252 374 386 340 C570 294 700 326 900 278 V520 H0 Z" fill="#6eca84" opacity=".72"/><path d="M0 450 C160 390 250 430 390 374 C540 314 690 350 900 288 V520 H0 Z" fill="url(#river)" opacity=".82"/><path d="M120 452 C234 424 292 432 384 392" fill="none" stroke="#ffffff" stroke-width="12" opacity=".58"/><path d="M522 374 C650 332 720 342 846 304" fill="none" stroke="#ffffff" stroke-width="12" opacity=".5"/><g transform="translate(300 174)"><circle cx="70" cy="54" r="34" fill="#f7c59f"/><path d="M34 56 C42 18 96 14 110 56 C82 42 62 42 34 56 Z" fill="#7d2dac"/><path d="M36 104 C52 78 96 78 114 104 L132 216 H20 Z" fill="#e83f93"/><path d="M38 138 C-18 160 -44 192 -64 236" stroke="#f7c59f" stroke-width="15" stroke-linecap="round" fill="none"/><path d="M62 216 L44 294" stroke="#43305f" stroke-width="16" stroke-linecap="round"/><path d="M116 216 L160 282" stroke="#43305f" stroke-width="16" stroke-linecap="round"/></g></svg>
